<svg width="58" height="32" viewBox="0 0 58 32" fill="none" xmlns="http://www.w3.org/2000/svg">
<path fill-rule="evenodd" clip-rule="evenodd" d="M48 9.32992C45.2414 6.5051 42.9021 4.13269 42.731 4.0389C42.3033 3.81465 41.8062 3.7614 41.3407 3.88994C40.7448 4.01683 38.4938 5.92027 38.4938 5.92027C38.4938 5.92027 27.9724 15.2554 27.5145 15.5203C27.2985 15.6528 27.055 15.734 26.8028 15.7575C25.5172 15.7961 23.669 13.7272 22.891 13.0375C19.8345 10.2789 17.1641 7.98923 14.1683 5.14787C13.0648 4.09959 12.1766 3.58649 10.9462 4.29821C10.7421 4.41407 0 12.552 0 12.552V21.9699C0 21.9699 13.451 12.5354 13.6883 12.3534C14.0576 12.0368 14.5168 11.8439 15.0014 11.8016C15.6745 11.8016 16.3255 12.4858 16.96 12.9879C20.5297 15.8182 27.5697 21.6444 27.7683 21.8154C28.5628 22.4885 29.3462 23.0458 30.8469 22.6265C32.1821 22.2568 39.4207 14.8251 42.229 12.0168C43.6966 10.5437 44.32 10.461 45.1697 10.8637C45.4265 11.0481 45.6665 11.2549 45.8869 11.4816C46.0083 11.3051 47.9669 9.39061 48.0055 9.35751" fill="#0C72BA"/>
<path d="M57.3467 0C57.4956 0 57.4956 0.182069 57.3798 0.353103C57.2198 0.667586 35.9729 29.2579 35.0681 30.1076C34.0809 31.0238 32.795 31.5511 31.4487 31.5917C30.5954 31.5965 29.762 31.3341 29.0653 30.8414C25.0653 28.0828 15.6418 19.7186 14.2129 19.1062C13.9254 18.9998 13.6198 18.9511 13.3136 18.9628C13.107 18.9634 12.9007 18.9763 12.6956 19.0014C11.6639 19.1503 9.03771 20.4303 8.59633 20.6565C7.29978 21.291 5.98668 21.9145 4.66806 22.5214C3.72461 22.9572 1.29702 24 1.04875 24.1048C0.926739 24.1506 0.798242 24.1767 0.668058 24.1821C0.508058 24.1821 0.430817 24.0993 0.734264 23.7959C1.15357 23.4097 3.80185 21.5559 3.80185 21.5559C3.80185 21.5559 10.0363 17.1034 13.126 14.7807C13.755 14.3062 14.3453 13.7931 15.1729 13.7931H15.355C15.8939 13.8807 16.4002 14.1091 16.8225 14.4552C17.6556 15.0731 28.5853 24.2759 29.7936 24.7669C30.1436 24.9112 30.5184 24.9861 30.897 24.9876C31.5104 24.9844 32.1078 24.7918 32.6074 24.4359C32.6791 24.3862 53.6887 3.47034 56.7729 0.391724C57.0487 0.121379 57.2308 0.022069 57.3246 0.022069M54.8308 2.92965C54.7481 2.89103 54.2791 3.33241 54.2791 3.37655C52.7067 4.90483 50.7591 6.87448 48.6074 8.99862C32.8722 24.6621 32.8556 24.6731 32.7839 24.7172C32.2345 25.1144 31.5749 25.3304 30.897 25.3352C30.4746 25.3338 30.0565 25.2495 29.6667 25.0869C28.8005 24.7283 23.9784 20.789 19.1122 16.811C17.8377 15.7572 16.8225 14.9352 16.6129 14.7752C16.2426 14.4652 15.7974 14.2578 15.3218 14.1738H15.1729C14.5499 14.2251 13.9644 14.4925 13.5177 14.9297L13.3081 15.0897C10.2736 17.3407 4.05564 21.7821 3.99495 21.8262L3.05151 22.4993C2.65426 22.7807 2.56047 22.88 2.62668 22.9517C2.69288 23.0234 2.91909 22.8634 3.12875 22.8083L4.51357 22.1959C5.84875 21.5779 7.16185 20.9545 8.43082 20.331C9.15909 19.9724 11.5977 18.8083 12.6405 18.6759C12.8599 18.6459 13.0811 18.6311 13.3025 18.6317C13.6585 18.6191 14.0133 18.6792 14.3453 18.8083C15.0736 19.1172 17.3467 20.9876 21.0046 24.0055C23.9508 26.4276 27.2887 29.1972 29.2418 30.5545C29.8889 31.0063 30.6596 31.2472 31.4487 31.2441C32.7116 31.2058 33.9175 30.7097 34.8418 29.8483C35.5646 29.1586 48.9715 11.1283 54.6212 3.52C54.6212 3.52 54.9908 3.02897 54.8418 2.92965" fill="#636467"/>
</svg>
